<?xml version="1.0" encoding="UTF-8"?>
<!-- Generator: visioncortex VTracer 0.6.12 -->
<svg version="1.1" xmlns="http://www.w3.org/2000/svg" width="512" height="512">
<path d="M0 0 C2.52677837997129 -0.1092133381080096 5.05235254219923 -0.1850281399605258 7.58056640625 -0.25146484375 C8.305341796875013 -0.28957275390624915 9.030117187499997 -0.3276806640624983 9.77685546875 -0.366943359375 C19.28032943014233 -0.5152291874827171 25.92453461647304 4.531818454570704 32.48291015625 10.86962890625 C34.14164116813771 12.516428605476975 35.78288423930883 14.177965658924592 37.413818359375 15.852294921875 C39.08776675634002 17.568416912552927 40.78238841844336 19.261890777721973 42.48095703125 20.95361328125 C43.56621609940947 22.04935746094351 44.650245460870565 23.146321249109462 45.73291015625 24.24462890625 C45.982905197143566 24.494724655151366 45.982905197143566 24.494724655151366 47.24803161621094 25.760360717773438 C52.6285807999441 31.323841048105095 55.20653274774634 36.84199811837919 55.09228515625 44.54931640625 C55.04910156250003 45.190625 55.04910156250003 45.190625 54.83056640625 48.43603515625 C54.78424072265625 49.12955078125 54.7379150390625 49.82306640625001 54.690185546875 50.53759765625 C54.23357216230261 56.863224575131724 53.43391418048799 63.12688810907932 52.54541015625 69.40478515625 C52.41263671875001 70.63197265625 52.27986328124999 71.85916015625 52.14306640625 73.12353515625 C51.979355468749986 74.43322265625 51.81564453125 75.74291015625 51.64697265625 77.09228515625 C51.731700747106544 82.55724701649633 55.434603544512356 85.51127219581006 59.14306640625 89.12353515625 C59.82868652343751 89.82607421875 60.51430664062502 90.52861328125 61.220703125 91.25244140625 C63.319978679293285 93.39795651019735 65.44540796768649 95.51377201476002 67.58056640625 97.62353515625 C68.31210937499998 98.35056640625 69.04365234375001 99.07759765625 69.79736328125 99.82666015625 C71.57696464925243 101.5946301427622 73.35887558666167 103.36019893174768 75.14306640625 105.12353515625 C79.4240524444964 101.56057981310974 83.39507511615011 97.90725679577328 87.228271484375 93.870361328125 C94.63637266680337 86.11044078212124 101.70381456698692 79.69228482032103 112.92822265625 79.06103515625 C120.94571628005315 79.28727836256543 127.02758428465091 81.93428139481544 133.14306640625 87.12353515625 C137.72179119668675 92.0810352334869 140.04846165302916 97.19078780640356 140.26806640625 103.99853515625 C140.22681640625 105.02978515625 140.18556640625002 106.06103515625 140.14306640625 107.12353515625 C141.25681640624998 107.02041015625 142.37056640625002 106.91728515624999 143.51806640625 106.81103515625 C149.84495136060843 106.8334709184995 155.27124364501094 109.64305092641672 160.00634765625 113.73291015625 C164.58191736813922 118.68315431104827 167.28947505780735 124.3297655470698 167.33056640625 131.12353515625 C167.26869140625 132.11353515625 167.20681640625003 133.10353515625 167.14306640625 134.12353515625 C168.25681640624998 134.02041015625 169.37056640625002 133.91728515625 170.51806640625 133.81103515625 C177.10312005906604 133.85765500511948 182.6441590176961 136.62002572830647 187.26416015625 141.24853515625 C193.5949045012914 149.04022050399325 194.4579077341295 155.29348925245753 194.14306640625 165.12353515625 C194.73474609375 165.29369140625 195.32642578125 165.46384765625 195.93603515625 165.63916015625 C204.1829912161282 168.16840606042146 208.02003947153423 171.31389044145888 212.12744140625 178.90478515625 C214.8782245910968 184.91418842160763 215.11653396032256 191.7381693565334 213.20556640625 198.06103515625 C209.35448302808612 207.1734577975391 200.08373797796185 214.33053744776603 193.14306640625 221.12353515625 C195.23123521062712 225.69520569398824 197.97961823270742 229.2539075306609 202.14306640625 232.12353515625 C205.64306640625 232.06103515625 205.64306640625 232.06103515625 207.66259765625 231.60400390625 C223.0369258087884 228.6259844373331 239.18234086047738 232.6615123960152 252.14306640625 241.12353515625 C265.4390049625436 250.83710803489816 274.4108813154543 264.86954119987615 277.14306640625 281.12353515625 C278.85768355386074 299.3927526939906 275.4351680642115 314.7598240105216 264.26416015625 329.62353515625 C253.57535748730078 342.40691127749835 238.81474326087653 349.28456433593306 222.45556640625 350.87353515625 C206.41524873929484 351.81607519009884 193.1576383135734 347.2609801668667 180.14306640625 338.12353515625 C179.62744140625 337.76259765625 179.62744140625 337.76259765625 177.01806640625 335.93603515625 C166.24396233001931 326.3798732799411 159.00554040972094 312.10450336525577 157.969970703125 297.718994140625 C157.91232964850428 295.28801332213203 157.91852166477105 292.867340031211 157.95556640625 290.43603515625 C157.95621093749997 289.620703125 157.95685546875 288.80537109375 157.95751953125 287.96533203125 C157.98344962266873 284.4013850218128 158.09329775733528 281.33024751486124 158.93212890625 277.84619140625 C159.14306640625 275.12353515624994 159.14306640625 275.12353515624994 157.27197265625 272.56884765625 C156.42505859375 271.80314453125 155.57814453125002 271.03744140625 154.70556640625 270.24853515625 C154.2833984375 269.85794921875004 154.2833984375 269.85794921875004 152.14697265625 267.88134765625 C151.48568359375003 267.30126953125 150.82439453125 266.72119140625 150.14306640625 266.12353515625 C146.8521149293402 267.3080541937795 144.48101638988987 268.4584518814067 141.95556640625 270.87353515625 C134.6895102526433 277.32353316733503 126.00104912624647 281.31763383549105 117.14306640625 285.12353515625 C117.50400390624998 286.34169921875 117.86494140625001 287.55986328125 118.23681640625 288.81494140625 C118.70605266582004 290.4384988643624 119.1747754934106 292.06220477470157 119.64306640625 293.68603515625 C119.88154296875001 294.4858984375 120.12001953125002 295.28576171875 120.36572265625 296.10986328125 C122.08089539548672 302.1129678685786 123.47193991466042 307.26499681260896 120.72119140625 313.18212890625 C117.26781268363311 317.1221200852357 113.36452478487189 319.51625068519303 108.89306640625 322.18603515625 C108.07193359374997 322.6894140625 107.25080078125 323.19279296875 106.40478515625 323.71142578125 C105.59138671875002 324.2096484375 104.77798828124997 324.70787109375 103.93994140625 325.22119140625 C103.13838623046877 325.7147412109375 102.33683105468748 326.208291015625 101.510986328125 326.716796875 C99.9792937105542 327.62674768048953 98.41958787775206 328.491732003224 96.831787109375 329.2998046875 C91.6695165623305 332.0515330756877 91.6695165623305 332.0515330756877 90.1943359375 335.055419921875 C89.56615283178138 337.32742524219316 89.16444056246507 339.540508247788 88.83056640625 341.87353515625 C88.54263686714069 343.4887891193253 88.25101091487005 345.103388837694 87.95556640625 346.71728515625 C87.82279296874998 347.48298828125 87.69001953125002 348.24869140625 87.55322265625 349.03759765625 C87.05190398776529 351.5871611702578 86.26019424757385 353.94986256994133 85.33056640625 356.37353515625 C83.76299925115688 361.32374722496513 84.35512796899667 364.35041608000233 86.449951171875 369.064453125 C86.98934326171877 370.0713720703125 87.52873535156249 371.078291015625 88.08447265625 372.11572265625 C88.37612304687502 372.67453125 88.37612304687502 372.67453125 89.85205078125 375.50244140625 C91.08535625741479 377.8286972569718 92.32492453923481 380.15164380593274 93.57080078125 382.47119140625 C99.54680845984649 393.97318625165514 99.54680845984649 393.97318625165514 98.14306640625 400.12353515625 C96.78976440429688 401.96824645996094 96.78976440429688 401.96824645996094 95.052734375 403.883056640625 C94.41832931518553 404.5831787109375 93.78392425537112 405.28330078125 93.13029479980469 406.004638671875 C90.05970340519787 409.2786787027475 86.92743405355986 412.4821026878746 83.74853515625 415.65087890625 C83.07510574340824 416.325265045166 82.40167633056637 416.99965118408204 81.70783996582031 417.69447326660156 C80.29986200602787 419.10312583416135 78.89064416817257 420.5105401463442 77.480224609375 421.916748046875 C75.31523036195489 424.07633288220615 73.1556938503092 426.2412739774906 70.99658203125 428.40673828125 C69.62255403884103 429.7801063514685 68.24821635053002 431.1531646627484 66.87353515625 432.52587890625 C66.22772994995114 433.17370834350584 65.58192474365234 433.82153778076173 64.91654968261719 434.48899841308594 C64.617600479126 434.7863715362549 64.617600479126 434.7863715362549 63.104736328125 436.291259765625 C62.57957931518558 436.81562118530275 62.05442230224605 437.3399826049805 61.51335144042969 437.88023376464844 C58.8678517768314 440.2805762709083 56.26133855117462 440.64437666335243 52.7333984375 440.6005859375 C46.13705949089547 439.38576536241374 40.04629848247569 435.2299954180045 34.194580078125 432.029541015625 C32.36087527495826 431.03396474008156 30.516471739537565 430.06079685298033 28.67041015625 429.08837890625 C27.584938964843758 428.4966186523437 26.499467773437487 427.9048583984375 25.381103515625 427.295166015625 C18.506810828098367 424.80781544581123 11.341288363249362 428.13392395044383 4.63916015625 430.19775390625 C1.562530944939823 431.01245907170306 -0.9605849194742575 431.2393307104278 -4.10693359375 431.37353515625 C-7.790663835393104 432.03781438015284 -9.303733912837117 433.43413522389113 -11.41162109375 436.38134765625 C-13.654722930604862 439.84432990883056 -15.681444442159005 443.42181917923483 -17.6796875 447.0302734375 C-19.3956685728607 450.08146002371063 -21.256436564077802 453.0037301407862 -23.16943359375 455.93603515625 C-23.76369140624999 456.87060546875 -24.357949218750008 457.80517578125 -24.97021484375 458.76806640625 C-27.11994717595772 461.45189372782613 -28.70082722049017 462.75270107493515 -31.85693359375 464.12353515625 C-37.99429098834082 464.5877508390666 -43.30715544443649 463.21676573495216 -49.17333984375 461.63916015625 C-49.66068351745605 461.5107272338867 -49.66068351745605 461.5107272338867 -52.12693786621094 460.86077880859375 C-54.179619250279075 460.31699193838136 -56.23112410169307 459.76874657955983 -58.281494140625 459.21630859375 C-61.40904566424703 458.37632509888164 -64.54167401399133 457.55773963057095 -67.67529296875 456.74072265625 C-69.67498499933149 456.20815499737006 -71.67434593951862 455.67434227413304 -73.67333984375 455.13916015625 C-74.60473281860351 454.8973199462891 -75.53612579345703 454.6554797363281 -76.49574279785156 454.40631103515625 C-82.27323166964236 452.8271888466051 -87.44124512046322 451.28974140010075 -91.21875 446.338623046875 C-92.14351979677336 443.12881571476913 -92.08815183192822 439.99149523167176 -92.06787109375 436.68212890625 C-92.09481026219194 435.1957432045957 -92.12486154709943 433.7094112750675 -92.15771484375 432.22314453125 C-92.20311425505763 429.9002079860096 -92.23217480000727 427.58332308737533 -92.20703125 425.260009765625 C-92.09928431542819 411.6678795733569 -92.09928431542819 411.6678795733569 -96.31884765625 406.9326171875 C-98.82551619247961 404.52381067988796 -101.56791547319575 402.46912856525495 -104.3477783203125 400.3891906738281 C-106.68799895696725 398.4265608415871 -108.32795609017441 395.98022779772646 -110.13037109375 393.52978515625 C-113.88223773197291 389.2554639027901 -116.64040806689314 388.3625979502715 -122.27099609375 387.77978515625 C-125.01001580964953 387.6449063540237 -127.74004531468907 387.62481881181134 -130.48193359375 387.62353515625 C-132.56114340059912 387.57995600333516 -134.63942683374637 387.5226537628386 -136.71810913085938 387.4588623046875 C-138.5980427233424 387.40778608190834 -140.47880823435355 387.3905790938672 -142.359375 387.37548828125 C-146.78580361930312 387.0566222799153 -150.85010704363395 386.40080576620375 -154.64599609375 383.98486328125 C-156.57590370643075 381.0184085153069 -157.34190425613664 377.7283547912641 -158.23193359375 374.34228515625 C-158.4425341796875 373.5735607910156 -158.653134765625 372.8048364257813 -158.8701171875 372.0128173828125 C-159.54188779541408 369.55218986883517 -160.19960001578556 367.0880541575038 -160.85693359375 364.62353515625 C-161.29871541627423 362.99567926181686 -161.74141450046952 361.3680720072656 -162.18505859375 359.74072265625 C-163.03775996861162 356.60795638147016 -163.88311744435373 353.47336283332834 -164.72216796875 350.3369140625 C-165.88050698723237 346.0136978197195 -167.09135927707015 341.7058769535928 -168.32763671875 337.404296875 C-169.25769591249366 333.3966340576784 -169.8972771161666 329.13433320977714 -168.85693359375 325.12353515625 C-164.80549310716032 320.0758388123022 -159.27023143955557 316.934802484457 -153.85693359375 313.49853515625 C-152.96748046875 312.92619140625 -152.07802734375 312.35384765625 -151.16162109375 311.76416015625 C-144.33603096690146 307.3835575375263 -144.33603096690146 307.3835575375263 -141.140380859375 305.649169921875 C-138.30564159505542 303.75520160553447 -137.91834042624487 302.035885730345 -137.197509765625 298.779052734375 C-137.06449462890623 298.08835693359373 -136.9314794921875 297.3976611328125 -136.79443359375 296.68603515625 C-136.4810239541697 295.24238688954614 -136.16326579253473 293.79967625457857 -135.84130859375 292.35791015625 C-135.6833984375 291.643125 -135.52548828125 290.92833984375 -135.36279296875 290.19189453125 C-134.39738883434507 286.2445471245519 -132.93678858963563 282.467243268113 -131.49365234375 278.67431640625 C-130.3037712229083 273.9074920387062 -132.14614879356645 270.171728180881 -134.29052734375 265.92822265625 C-134.7745703125 264.96529296875 -135.25861328125 264.00236328125 -135.75732421875 263.01025390625 C-136.26457031249998 262.01638671875 -136.77181640625 261.02251953125 -137.29443359375 259.99853515625 C-137.54612304687498 259.497734375 -137.54612304687498 259.497734375 -138.81982421875 256.96337890625 C-142.54655738015776 249.58909947663835 -142.54655738015776 249.58909947663835 -144.85693359375 246.12353515625 C-146.11963172938488 241.84978762025497 -145.85775614174992 239.13239848634117 -144.01687622070313 235.08197021484375 C-141.66004627429808 231.1027230633639 -138.26632549901308 228.0297460681771 -134.97802734375 224.81884765625 C-134.21015396118165 224.05426239013673 -133.4422805786133 223.28967712402343 -132.65113830566406 222.50192260742188 C-131.034354183881 220.8955237552958 -129.41282735923494 219.2938857737205 -127.786865234375 217.69677734375 C-125.29052212072897 215.24469303151153 -122.80794623523244 212.77932695629738 -120.32763671875 210.31103515625 C-118.75354186567439 208.75035733393182 -117.1786980191446 207.1904345025342 -115.60302734375 205.63134765625 C-115.23010307312012 205.26211685180664 -115.23010307312012 205.26211685180664 -113.34288024902344 203.39358520507813 C-112.65198806762695 202.71552825927733 -111.96109588623047 202.03747131347657 -111.249267578125 201.3388671875 C-110.94512687683105 201.0396485900879 -110.94512687683105 201.0396485900879 -109.40599060058594 199.52542114257813 C-106.45668035230167 196.8563155588857 -103.6136734564277 196.6032135104439 -99.68310546875 196.646484375 C-93.52307460024387 197.686282260026 -88.04463739097761 201.22251479061882 -82.60693359375 204.18603515625 C-80.72645272832744 205.20462895835388 -78.843747338255 206.21714265213305 -76.95098876953125 207.21275329589844 C-75.24367772918151 208.11138917061743 -73.54750292810778 209.03108974358676 -71.85205078125 209.951904296875 C-68.5058886760909 211.2608570147311 -67.21855956836208 211.1991306810202 -63.85693359375 210.12353515625 C-63.16100097656249 209.93984375 -62.46506835937498 209.75615234375 -61.748046875 209.56689453125 C-61.40636474609374 209.467958984375 -61.40636474609374 209.467958984375 -59.67724609375 208.96728515625 C-58.91283203124999 208.74943359375 -58.14841796874998 208.53158203125 -57.36083984375 208.30712890625 C-55.78211758080465 207.85347308356455 -54.20398433690514 207.3977621546781 -52.62646484375 206.93994140625 C-51.859472656250006 206.72208984375 -51.09248046875001 206.50423828125 -50.30224609375 206.27978515625 C-49.959436035156244 206.180849609375 -49.959436035156244 206.180849609375 -48.224609375 205.68017578125 C-45.85693359375 205.12353515625 -45.85693359375 205.12353515625 -42.375 204.949462890625 C-38.47225298874844 204.0332246436393 -37.38434139647788 202.95929026767948 -35.24395751953125 199.64002990722656 C-34.87389587402345 199.0171257019043 -34.503834228515615 198.39422149658202 -34.12255859375 197.75244140625 C-33.71785339355469 197.11491439819335 -33.31314819335938 196.47738739013673 -32.89617919921875 195.82054138183594 C-31.611336983435194 193.78842436874922 -30.358334478276475 191.73888150914675 -29.10693359375 189.68603515625 C-27.835778473236218 187.6407884101339 -26.55834061442374 185.59976227385297 -25.27484130859375 183.56224060058594 C-24.4794649351428 182.29543498362864 -23.692208314060025 181.02348610616193 -22.91412353515625 179.74598693847656 C-21.073758560812678 176.77512908200265 -19.815060807782487 175.095619965605 -16.85693359375 173.12353515625 C-10.890989711120596 172.41429707230105 -5.490643670457189 173.1639838252214 0.14306640625 175.12353515625 C0.4343945312500068 174.38490234375 0.7257226562500136 173.64626953125 1.02587890625 172.88525390625 C6.306247540006268 159.81717178434377 12.33516809426996 150.12340300814424 22.14306640625 140.12353515625 C20.624900732077975 136.54849985900617 18.511544199414516 134.22378386108787 15.76806640625 131.49853515625 C14.997207031250014 130.72251953125 14.226347656249999 129.94650390625 13.43212890625 129.14697265625 C10.38998639869277 126.4578432724366 8.581661596501675 125.1487736683597 4.47119140625 125.07666015625 C3.4554101562499966 125.17462890625 2.439628906249993 125.27259765625001 1.39306640625 125.37353515625 C0.8181445312499989 125.42703125 0.8181445312499989 125.42703125 -2.09130859375 125.69775390625 C-5.342449627029509 126.06536217661045 -8.583837925411416 126.47750137292502 -11.826171875 126.915283203125 C-17.448104391490688 127.66482914695621 -23.060888409570225 128.33419334888282 -28.73193359375 128.56103515625 C-29.678105468750005 128.60099609375 -30.62427734375001 128.64095703125 -31.59912109375 128.68212890625 C-41.5751368239284 126.97161301966065 -48.337098174911375 120.4400620398265 -55.163330078125 113.468994140625 C-56.66748150995403 111.93802204782966 -58.19654450048429 110.43565821433518 -59.72998046875 108.93408203125 C-67.2341563987435 101.46857954113037 -72.91692708572441 94.7717586285171 -73.38037109375 83.79541015625 C-73.35811765468287 81.48769531089906 -73.30756448207939 79.18011769145961 -73.23193359375 76.87353515625 C-73.2105029296875 75.6573046875 -73.18907226562499 74.44107421875 -73.1669921875 73.18798828125 C-73.09225630704157 69.49844662145772 -72.97861226783874 65.8117952937925 -72.85693359375 62.12353515625 C-72.82792968749999 61.009140625 -72.79892578125 59.89474609375 -72.76904296875 58.74658203125 C-72.68923958782756 55.704774093298994 -72.59175104518923 52.66439585384879 -72.48193359375 49.62353515625 C-72.4514794921875 48.71700195312499 -72.421025390625 47.81046875 -72.3896484375 46.87646484375 C-72.37007080078126 46.4583251953125 -72.37007080078126 46.4583251953125 -72.27099609375 44.34228515625 C-72.25528564453126 43.98102539062501 -72.25528564453126 43.98102539062501 -72.17578125 42.15283203125 C-71.67581238212614 38.97079433617528 -70.69797532561978 36.75431645515233 -68.10693359375 34.81103515625 C-64.79951433205053 33.80043482628628 -63.1787023074811 34.03757230753021 -59.85693359375 35.12353515625 C-54.33900785004846 38.98446949992664 -49.94355649171831 44.17432766265527 -45.47021484375 49.15087890625 C-24.264811505224998 72.47150738806658 -24.264811505224998 72.47150738806658 -13.5478515625 73.2109375 C-9.570396564647012 72.84688171008109 -5.743934496628924 72.02396282286549 -1.85693359375 71.12353515625 C-0.5957017682989658 63.2851478182842 0.7318773579194726 54.716295470133886 -3.32635498046875 47.51666259765625 C-8.0937712468413 41.28746659809224 -13.963832040023988 36.14307793859502 -19.79443359375 30.93603515625 C-21.52516880338817 29.319439299078837 -23.25113338932087 27.697720111675892 -24.97216796875 26.07080078125 C-28.728415703424133 22.527826633194138 -32.52649718902538 19.03753376921599 -36.36997985839844 15.589431762695313 C-38.523408133928456 13.466498731038826 -38.83911704046898 12.28744744643528 -39.16943359375 9.24853515625 C-38.85693359375 6.123535156250018 -38.85693359375 6.123535156250018 -37.29443359375 3.81103515625 C-29.56255806810148 -1.5418017461220508 -15.082269478444516 0.5055232814025672 -6.0537109375 0.2275390625 C-4.035450229191497 0.16187699882660667 -2.017443385216751 0.08723520363353998 0 0 Z M-69.39599609375 269.65478515625 C-80.39415917860329 280.68786304454727 -87.83995670620577 294.576949258999 -89.85693359375 310.12353515625 C-89.52693359375 311.11353515625 -89.19693359375 312.10353515625 -88.85693359375 313.12353515625 C-82.43631572206812 305.75046960726803 -76.14547559423912 298.31751323015345 -70.149169921875 290.594482421875 C-66.42270386335414 285.808433283112 -62.59474115140503 281.11255511965305 -58.73193359375 276.43603515625 C-58.43609375 276.07743408203123 -58.43609375 276.07743408203123 -56.93896484375 274.2626953125 C-54.29122633050574 271.056956227283 -51.63652919425044 267.8574476471699 -48.96630859375 264.67041015625 C-48.14646484375001 263.68556640625 -47.32662109374999 262.70072265625 -46.48193359375 261.68603515625 C-45.77294921875 260.84169921875 -45.06396484375 259.99736328125 -44.33349609375 259.12744140625 C-42.85693359375 257.12353515625 -42.85693359375 257.12353515625 -42.85693359375 255.12353515625 C-51.43181127265177 255.12353515625 -63.316702464489936 264.32399314500697 -69.39599609375 269.65478515625 Z M209.14306640625 283.12353515625 C206.4445066179909 287.17137483863866 206.37390528438067 290.37092906638367 207.14306640625 295.12353515625 C208.45125070789283 298.06238640133597 209.5400612799961 298.95436421770506 212.14306640625 301.12353515625 C216.1171220335887 302.5416961361673 219.06772778856748 302.57756701704926 222.95556640625 300.93603515625 C226.1927736887606 298.25377769359835 227.78387632533747 296.3037311363911 229.01806640625 292.24853515625 C229.176379540734 288.29070679415065 228.33063183961713 286.4048833063007 226.14306640625 283.12353515625 C223.21098411707612 280.6801332486051 221.45484319216985 280.1569398118843 217.64306640625 279.74853515625 C213.91360975809664 280.14811979712357 212.08864302466236 280.85123319347474 209.14306640625 283.12353515625 Z M41.14306640625 325.12353515625 C39.17026019554635 327.30738575228474 37.242270993517394 329.5119906733272 35.33056640625 331.74853515625 C34.74670166015625 332.42714599609377 34.162836914062495 333.1057568359375 33.561279296875 333.804931640625 C31.752399579243615 335.90874005293836 29.947484347028052 338.0158995692081 28.14306640625 340.12353515625 C27.10679237608835 341.3307246399787 26.07034407561349 342.5377645566588 25.03369140625 343.74462890625 C22.56328100873006 346.6223078160501 20.096871556501753 349.5033882392011 17.63134765625 352.38525390625 C16.1263459143604 354.1430643396906 14.619389379160026 355.8991796119615 13.11181640625 357.65478515625 C6.42066057457734 365.4484182455582 -0.23239824509772689 373.27319995961875 -6.85693359375 381.12353515625 C-2.314422605163969 382.63770548577867 0.48531088333220396 380.70184864454404 4.74853515625 378.83056640625 C20.910997194247926 370.70283808564574 33.6330345999462 357.5772059471376 39.52978515625 340.29150390625 C41.06222221146072 335.1564955282632 42.383943898695975 330.5131690497288 42.14306640625 325.12353515625 C41.813066406250016 325.12353515625 41.48306640625 325.12353515625 41.14306640625 325.12353515625 Z " fill="#1F3040" transform="translate(201.85693359375,23.87646484375)"/>
<path d="M0 0 C2.543792724609375 1.9425201416015625 2.543792724609375 1.9425201416015625 5.08740234375 4.519775390625 C5.556449890136719 4.988092803955084 6.0254974365234375 5.456410217285168 6.508758544921875 5.9389190673828125 C8.046645453305928 7.480272240005917 9.566088513874433 9.038531443573362 11.0859375 10.59765625 C12.152437068924257 11.673487347505272 13.220050502613276 12.748215287286001 14.288726806640625 13.821884155273438 C17.09135559058359 16.643555791872046 19.878641279714657 19.479919549826207 22.6629638671875 22.31964111328125 C25.509659068266956 25.217586976626166 28.37065449109366 28.101338339909944 31.23046875 30.986328125 C36.83438167085126 36.64378083662612 42.422160408016225 42.31683974573116 48 48 C46.07163088814934 52.12405767111744 44.37759113111565 53.3706781204296 40.265625 55.234375 C32.51037827442735 57.85511354864181 25.11226670804433 55.48717785962285 18 52 C10.73199852744483 47.532135072112 4.66312200636321 41.975940202799336 -1.296875 35.90625 C-4.759474794797939 33.46441661869741 -6.849389465045988 33.48855036062179 -11 34 C-13 36 -13 36 -13.3125 39.375 C-13.24002410670721 42.96738844421074 -12.495409692536043 46.074291028605245 -11.515625 49.5234375 C-7.507485371816131 65.19998241833937 -8.080631133003976 82.70650497176331 -16 97 C-19.079180642697025 101.89014726850661 -22.478539270781624 106.68160993353746 -26.74609375 110.60546875 C-28 112 -28 112 -28.375 115.5 C-28 119 -28 119 -26.9375 121 C-24.516101997407162 122.24975380778983 -22.622220466494525 122.4150060614495 -19.953125 121.87109375 C-11.3574250681487 118.03741158039435 -5.807321257655531 106.24882777413126 -2 98 C0.809691740828157 90.51018772257629 2.972151158708016 82.93419444722667 3.31640625 74.91796875 C3.3583007812500227 73.98662109374999 3.4001953124999886 73.0552734375 3.443359375 72.095703125 C3.482675781250009 71.13599609375001 3.521992187500018 70.17628906250002 3.5625 69.1875 C3.6056835937499727 68.20845703125002 3.6488671875000023 67.22941406249998 3.693359375 66.220703125 C3.7990225972145026 63.813929730113244 3.901123271400479 61.40706016793217 4 59 C5.001601562500014 59.554296875000006 6.003203125000027 60.10859375000001 7.03515625 60.6796875 C8.377405171685155 61.4118232754646 9.719864378518764 62.143573619965935 11.0625 62.875 C11.719277343750036 63.2398046875 12.376054687499959 63.604609374999995 13.052734375 63.98046875 C18.78048590130288 67.08417647361239 24.405932614100607 69.02208608745542 30.9375 69.625 C31.709648437499993 69.699765625 32.481796874999986 69.77453125 33.27734375 69.8515625 C33.56158203125 69.87605468750002 33.56158203125 69.87605468750002 35 70 C35.0863671875 70.605859375 35.172734375000005 71.21171874999999 35.26171875 71.8359375 C36.6792445311425 80.28907289213419 39.012007114649236 88.06782439855752 46 93.5 C53.078080594935216 98.40899138035829 59.58376740633486 98.53698661947311 68 98 C70.49738302003448 97.52894889378211 72.61185086613318 96.88861363120625 75 96 C75.35191406249999 96.5916796875 75.70382812499997 97.18335937500001 76.06640625 97.79296875 C79.46652143526876 103.2349285634981 82.54391032851856 106.61722440368152 88 110 C85.47187580182788 115.96860886377988 80.26220077814617 120.17980553683287 75.75 124.6875 C75.25201904296875 125.18555145263673 74.75403808593751 125.68360290527346 74.240966796875 126.19674682617188 C57.49253205774937 142.85383504673564 40.979686518893175 149.15306660331714 18.07421875 153.75390625 C-12.939090229592466 160.03502068523449 -12.939090229592466 160.03502068523449 -23.78515625 174.140625 C-25.91328830178935 176.88805473881803 -28.149623234026222 179.44187762732838 -30.5 182 C-33.61458668246465 185.41739372103757 -36.59186620065299 188.9052234980294 -39.5 192.5 C-43.11032442372195 196.96276213487852 -46.88427928805163 201.22719532994552 -50.75 205.46875 C-53.07862053175069 208.0884480982195 -55.29562947197854 210.77515309730683 -57.5 213.5 C-60.40813379934701 217.0947765019706 -63.38541331753541 220.58260627896243 -66.5 224 C-69.52282420876298 227.3198948637621 -72.4251216136899 230.69764111764243 -75.25 234.1875 C-79.4987652250999 239.4350977517023 -83.86921336952855 244.5669191575439 -88.33837890625 249.627685546875 C-90.68051819276451 252.28332599266287 -92.92490571457435 254.8960120149086 -95 257.76953125 C-98.63462166113999 262.75839896276665 -98.63462166113999 262.75839896276665 -102.40625 263.42578125 C-119.5750772671405 262.7104134472025 -134.89741712903182 251.71806000459236 -146.1953125 239.65625 C-152.65226752718215 232.09449278185514 -158.87408875267303 222.21025751051434 -159 212 C-157.48172801487635 209.60224119422548 -156.18307344917963 207.93690284515378 -154.25 205.9375 C-153.21760694005627 204.79778304194588 -152.18773043815057 203.65578232451975 -151.16015625 202.51171875 C-150.63051269531252 201.9308349609375 -150.100869140625 201.34995117187498 -149.55517578125 200.75146484375 C-147.1307988950289 198.0210912516385 -144.91319963035906 195.14274784733584 -142.6875 192.25 C-138.00937972802927 186.23057097448157 -133.19283853048398 180.33510969037116 -128.3349609375 174.460205078125 C-124.3469319105904 169.63708059966768 -120.38059734030278 164.79743014604077 -116.4375 159.9375 C-115.9052783203125 159.28152832031253 -115.37305664062501 158.625556640625 -114.82470703125 157.94970703125 C-113.75261853252039 156.6278872716698 -112.68067809508011 155.305947410076 -111.60888671875 153.98388671875 C-109.45018740513734 151.32203685191894 -107.28896187919477 148.6622447358165 -105.12744140625 146.002685546875 C-104.04216180001632 144.66716970380048 -102.95720098791367 143.33139473623748 -101.87255859375 141.995361328125 C-99.18251050008945 138.68226546975143 -96.48836501839429 135.37268186193626 -93.78515625 132.0703125 C-68.73999569456669 101.44437492221005 -68.73999569456669 101.44437492221005 -62 89 C-61.560429687500005 88.1891796875 -61.12085937500001 87.378359375 -60.66796875 86.54296875 C-57.99212044576899 80.84142625017208 -57.60538179758635 75.30907070212749 -57.352783203125 69.107666015625 C-56.33810121686892 46.01480976541632 -43.56643737565534 33.37679396067941 -28.169921875 17.9296875 C-26.363850912672717 16.113790253873333 -24.568737175087165 14.287476756165375 -22.7734375 12.4609375 C-21.60742928780678 11.288407340117487 -20.440784938399617 10.116509359967608 -19.2734375 8.9453125 C-19.01032272338867 8.676024322509761 -19.01032272338867 8.676024322509761 -17.678802490234375 7.313262939453125 C-12.467707049862383 2.132773274544377 -7.70119502799281 -2.186831613052675 0 0 Z " fill="#EDC79E" transform="translate(273,146)"/>
<path d="M0 0 C3.6299999999999955 0.6599999999999966 7.259999999999991 1.3199999999999932 11 2 C12.378538787769259 15.785387877692642 3.295174460382526 25.810583129141094 -4.84765625 35.98046875 C-6.751284307326216 38.358747393635184 -8.418024469994407 40.65757549454531 -10.05859375 43.23828125 C-12.825932576273061 47.49714790691468 -14.500733039379924 49.63384239245579 -19.55078125 50.8671875 C-22.3058077920046 51.22470745609917 -25.060826005427145 51.41387145773842 -27.83203125 51.59765625 C-42.507739477102234 52.686882224774536 -56.221559162525296 61.55534615579137 -67 71 C-67.688359375 71.59296875000001 -68.37671875 72.18593750000002 -69.0859375 72.796875 C-81.73905589292332 84.4997592053125 -91.17661537979299 102.69936045136131 -92.16845703125 119.92578125 C-92.28939105554127 123.30586192893617 -92.34707241078073 126.68039733634328 -92.375 130.0625 C-92.38893798828124 131.15054931640623 -92.4028759765625 132.2385986328125 -92.417236328125 133.359619140625 C-92.29599068653474 154.2437872498689 -83.44692700895838 173.2931477678265 -69.0078125 188.14453125 C-53.457136885358096 203.36423308764392 -33.64810187897109 210.19197709415994 -12.25 210.3125 C8.646182279080875 210.04859634552076 27.881270075000714 202.8959457854893 43.4296875 188.63671875 C59.405600244120535 171.985207705755 67.23525779098827 152.27464495845436 67.125 129.4375 C67.09664062499996 128.36564453125004 67.06828125000004 127.29378906249997 67.0390625 126.189453125 C67.09740597357 120.22747941956368 67.72197322661327 116.55604013371857 71.6171875 111.91015625 C78.01689707268099 105.67162350075557 85.46968167245075 104.22751393526397 93.9375 102.375 C94.88818359375 102.15843749999999 95.8388671875 101.94187499999998 96.818359375 101.71875 C102.20316085451839 100.5163546317271 107.51334752015413 99.58299731190806 113 99 C114.67804244711283 102.8740893018126 115.7098725125079 106.69442630628544 116.625 110.8125 C116.7551953125 111.39322265625003 116.7551953125 111.39322265625003 117.4140625 114.33203125 C117.607421875 115.2124609375 117.80078125 116.092890625 118 117 C111.08772101743091 121.97616152799202 104.00023215962602 126.62730455642452 96.802978515625 131.178955078125 C96.09584716796871 131.63036865234375 95.38871582031254 132.0817822265625 94.66015625 132.546875 C94.34373168945314 132.74716308593747 94.34373168945314 132.74716308593747 92.742431640625 133.7607421875 C89.25980069833753 136.23767012123284 88.13428631753959 137.33283147000168 87.26171875 141.66796875 C87.06315072073278 143.1735519346222 86.87219542071563 144.6801521338354 86.6875 146.1875 C85.67057889338548 153.46585490582004 83.88801765743494 159.89417286661717 80.893310546875 166.608154296875 C78.92316992099643 171.23500900249644 78.99548413291444 174.12287092586962 80 179 C81.32275390625011 182.11791992187523 81.32275390625011 182.11791992187523 82.9765625 185.23046875 C83.56437500000004 186.36291015625 84.15218749999997 187.4953515625 84.7578125 188.662109375 C85.69602240916612 190.43352034366615 86.6342700203652 192.20491459934624 87.576171875 193.974365234375 C88.49036699098895 195.7003599115215 89.38993440649347 197.43407745954852 90.2890625 199.16796875 C90.83256347656254 200.19172607421876 91.37606445312497 201.21548339843753 91.93603515625 202.270263671875 C93.11674388384824 205.29952119442578 93.06395048721936 206.03894263998131 92 209 C90.11136153014343 211.2161957637445 88.21920347850835 213.27270628210385 86.171875 215.33203125 C85.58585510253909 215.92803634643553 84.99983520507811 216.52404144287107 84.39605712890625 217.1381072998047 C83.15587505789483 218.39345951024978 81.91160557146554 219.64478499368704 80.66357421875 220.892333984375 C78.7549381655706 222.8075448236524 76.87157153806766 224.74544801334343 74.98828125 226.685546875 C73.78012039920736 227.90250734618843 72.57053149490525 229.11805210080837 71.359375 230.33203125 C70.7977264404297 230.91523635864257 70.2360778808594 231.49844146728515 69.65740966796875 232.0993194580078 C65.69985869566449 235.98884283238795 65.69985869566449 235.98884283238795 62.47314453125 236.040283203125 C59.58520217900414 234.82552285140537 56.83329379676832 233.50393388540647 54.0703125 232.0234375 C52.944960937500014 231.43562499999996 51.819609375 230.84781250000003 50.66015625 230.2421875 C48.30624900528451 228.99890831439336 45.957241619780206 227.74630694546568 43.61328125 226.484375 C42.4853515625 225.89914062499997 41.357421875 225.31390625 40.1953125 224.7109375 C39.174536132812506 224.16743652343746 38.15375976562501 223.62393554687503 37.10205078125 223.06396484375 C31.2353940359302 221.05177453239287 26.214030504020002 223.14819283720806 20.6875 225.375 C14.22856336979342 227.80749652060354 7.996786744667787 228.9985969070509 1.129638671875 229.65966796875 C-2.8846246001394604 230.16039096943928 -4.586534410312964 230.61001975023538 -7.61328125 233.46484375 C-8.438565940713119 234.62261472701607 -9.230817024293543 235.80422158999693 -10 237 C-10.51151611328126 237.75885498046875 -11.023032226562492 238.5177099609375 -11.550048828125 239.299560546875 C-13.27247285583482 241.88934183216753 -14.952971105115807 244.50243413062685 -16.625 247.125 C-17.76175030266296 248.89925216158883 -18.89972740158788 250.6727190561914 -20.0390625 252.4453125 C-20.536157226562494 253.2240673828125 -21.03325195312499 254.002822265625 -21.54541015625 254.80517578125 C-22.95645029794497 256.93428804607674 -24.446362105026765 258.9732900389747 -26 261 C-39.804824665638165 257.9242199303296 -53.57422176651255 254.47525941116248 -67 250 C-67.05534912109376 248.95545654296876 -67.1106982421875 247.91091308593752 -67.167724609375 246.834716796875 C-67.3741431660787 242.95997141780992 -67.58602513786809 239.08554079338813 -67.799560546875 235.211181640625 C-67.8912221868665 233.5341792112585 -67.9814012637482 231.85709506453463 -68.070068359375 230.179931640625 C-68.1977610987584 227.76946367204096 -68.33077972096414 225.35933971346515 -68.46484375 222.94921875 C-68.50343002319336 222.19912033081056 -68.54201629638672 221.44902191162112 -68.58177185058594 220.6761932373047 C-68.75868460350972 217.5753720677202 -69.01252024252943 214.9624392724117 -70 212 C-71.30911500546466 211.28695012468307 -72.64678017248065 210.62531457733746 -74 210 C-81.54760088432735 204.19922377449075 -89.07173025175877 197.12223755022484 -94.6875 189.4375 C-100.03631736341879 183.7995573736937 -112.0579007332984 185.63214401949574 -119.37109375 185.39453125 C-120.40621093749999 185.35714843749997 -121.441328125 185.319765625 -122.5078125 185.28125 C-123.44254394531251 185.25095703124998 -124.377275390625 185.22066406249996 -125.34033203125 185.189453125 C-127.96779811626809 185.00229380042003 -130.4318928760856 184.5744373643712 -133 184 C-133.3029296875 182.765078125 -133.605859375 181.53015625 -133.91796875 180.2578125 C-136.2837536112951 170.67566979217895 -138.7271213792061 161.1314801702968 -141.475341796875 151.65087890625 C-142.32736950976818 148.66861047697648 -143 146.11912119102533 -143 143 C-141.61401367187497 141.7607421875 -141.61401367187497 141.7607421875 -139.66796875 140.546875 C-138.95648681640625 140.09578369140627 -138.2450048828125 139.64469238281254 -137.511962890625 139.179931640625 C-136.74489013671877 138.70805419921874 -135.9778173828125 138.23617675781247 -135.1875 137.75 C-134.41591552734374 137.26200927734374 -133.64433105468748 136.77401855468747 -132.849365234375 136.271240234375 C-129.4160426300521 134.10371147103695 -125.96155306627062 131.97253270489193 -122.4921875 129.86328125 C-121.525390625 129.26902343749998 -120.55859375 128.67476562499996 -119.5625 128.0625 C-118.7181640625 127.5584765625 -117.873828125 127.05445312500001 -117.00390625 126.53515625 C-113.81571758019916 124.09274270763797 -113.1555136636869 121.9955532829187 -112.54296875 118.07421875 C-112.4256640625 116.9566015625 -112.308359375 115.838984375 -112.1875 114.6875 C-111.0841865468585 106.20800225125936 -108.84216561897998 97.68433123795995 -105 90 C-104.12593144644225 82.41031562900838 -106.79199009705084 77.42288996909372 -110.3125 70.8125 C-110.81201171875 69.84119140625 -111.3115234375 68.86988281250001 -111.826171875 67.869140625 C-115.60931885169228 60.55839699719331 -115.60931885169228 60.55839699719331 -117.793701171875 57.436279296875 C-119 55 -119 55 -118.56884765625 53.0810546875 C-116.2680746066799 50.029111102916204 -113.61842667395896 47.374727549697695 -110.8984375 44.703125 C-110.3019741821289 44.10949157714845 -109.7055108642578 43.515858154296865 -109.09097290039063 42.90423583984375 C-107.190301903635 41.01473373130503 -105.28278525663879 39.13231608318745 -103.375 37.25 C-102.08287531768295 35.96790935203961 -100.79120323975994 34.68536238504544 -99.5 33.40234375 C-96.33855521442374 30.262915678892256 -93.17095390476356 27.12982199420486 -90 24 C-86.37085408746542 25.384681477879866 -82.97363117554376 27.00122481275949 -79.54296875 28.8203125 C-79.027666015625 29.087792968749994 -79.027666015625 29.087792968749994 -76.419921875 30.44140625 C-74.27096335046119 31.560682532871567 -72.12764623117387 32.69085961756508 -69.990234375 33.83203125 C-62.561669179962735 37.65508100146465 -57.87582429185704 39.49236678091887 -49.65625 36.9765625 C-48.6146875 36.530546875 -47.573125000000005 36.08453125 -46.5 35.625 C-39.048024737959906 32.58932768381794 -32.352492330391016 30.856846645247828 -24.296875 30.34375 C-20.89221383222369 29.834208872849814 -18.715391263083177 28.89561437131897 -16.53955078125 26.171630859375 C-16.095952148437505 25.44339111328125 -15.652353515625009 24.715151367187502 -15.1953125 23.96484375 C-14.69386718749999 23.154667968750005 -14.192421875000008 22.34449218750001 -13.67578125 21.509765625 C-13.164023437499992 20.66091796875 -12.652265625000013 19.812070312499998 -12.125 18.9375 C-11.107931206234099 17.27923566233821 -10.089704189254547 15.621681137522415 -9.0703125 13.96484375 C-8.570478515625013 13.148706054687494 -8.070644531249997 12.332568359374989 -7.5556640625 11.49169921875 C-5.126041069041378 7.600184424142526 -2.5658445782083277 3.8028114420311283 0 0 Z " fill="#86C6FC" transform="translate(191,212)"/>
<path d="M0 0 C2.9280727219389746 1.306528414657521 4.832758092709355 2.643351423766717 6.953125 5.0390625 C7.490664062500002 5.619140625 8.028203125000005 6.19921875 8.58203125 6.796875 C9.690859964195738 8.012172045067018 10.787399308478427 9.238800655948864 11.87109375 10.4765625 C15.911064357304099 14.775628609435216 15.911064357304099 14.775628609435216 19.099609375 15.4326171875 C22.290478570607263 15.474948023123318 24.978090637032324 15.007303120989206 28 14 C41.9322901907525 12.636120291115901 54.29596869206625 13.85612202636662 65.875 22.3125 C75.84436974538556 30.78463839168296 83.07055529123102 41.19760057147107 84.3359375 54.54296875 C84.48987356574952 68.90520368442947 80.61014574090234 80.40693915361908 71.00390625 91.25390625 C60.44488328429168 101.46419084252898 48.08311047342943 104.40294568910065 33.8203125 104.27734375 C22.832090773289337 103.47963031176232 12.189984782638362 97.716121482689 4.6875 89.75 C-4.423623616299494 78.78358709892984 -8.102491967552055 66.11551191242881 -7 52 C-6.478781491307586 49.26917140317562 -5.7528462381598615 46.682014723444524 -5 44 C-4.589424298311599 40.26476251878614 -4.584471453611343 38.597437710029965 -6.7578125 35.47265625 C-7.538984374999984 34.6773046875 -8.320156250000025 33.881953124999995 -9.125 33.0625 C-12.902175808550055 29.15178767296584 -16.496330030027764 25.155079726905456 -20 21 C-19.429670410156234 20.434907226562473 -18.859340820312525 19.869814453125002 -18.271728515625 19.28759765625 C-15.69939325224783 16.735996449173854 -13.130906627920467 14.180555415343349 -10.5625 11.625 C-9.664667968749995 10.735546875000011 -8.766835937499991 9.846093750000023 -7.841796875 8.9296875 C-6.98779296875 8.078906249999989 -6.1337890625 7.228124999999977 -5.25390625 6.3515625 C-4.463146972656261 5.5660400390625 -3.6723876953125227 4.780517578125 -2.857666015625 3.97119140625 C-1 2 -1 2 0 0 Z M30 51 C27.301440211740896 55.047839682388656 27.23083887813067 58.24739391013367 28 63 C29.308184301642825 65.93885124508597 30.39699487374611 66.83082906145506 33 69 C36.974055627338714 70.41816097991727 39.92466138231748 70.45403186079932 43.8125 68.8125 C47.04970728251055 66.13024253734835 48.640809919087474 64.1801959801411 49.875 60.125 C50.03331313448399 56.16717163790065 49.187565433367126 54.28134815005069 47 51 C44.06791771082612 48.5565980923551 42.31177678591985 48.033404655634286 38.5 47.625 C34.77054335184664 48.02458464087357 32.94557661841236 48.72769803722474 30 51 Z " fill="#C9C9CA" transform="translate(381,256)"/>
<path d="M0 0 C24.665624312397625 -3.9586804451996187 24.665624312397625 -3.9586804451996187 33.76025390625 2.3232421875 C41.44613278412879 8.396889766128524 50.600303295538765 17.200606591077488 55 26 C55.49539465043972 32.659025766375805 54.917236647165765 39.153702409744085 54 45.75 C53.24140477009249 51.33546869367572 52.731429961190884 56.86187280591352 52.625 62.5 C52.59664062500002 63.74781250000001 52.568281249999984 64.995625 52.5390625 66.28125 C53.61750484411962 74.98190348815154 58.58941084878438 80.14219972956248 64.75 86 C65.4473828125 86.6793359375 66.14476562499999 87.358671875 66.86328125 88.05859375 C68.5666791534851 89.71532321777318 70.27871368882813 91.36189852914498 72 93 C70.82528832790717 96.52413501627856 70.27202579341247 96.6534769735398 67.1875 98.4375 C62.080317460082654 101.66438543116965 58.11782619379005 105.67949319678775 53.987060546875 110.036865234375 C52.69113336523097 111.39038917964766 51.34901988541989 112.69938488425976 50 114 C49.34 114 48.68000000000001 114 48 114 C46.625 112.53125 46.625 112.53125 45 110.5 C39.85019207672633 104.43251141953922 32.53950097497972 96.52831145343424 24.21484375 95.734375 C17.18639935570195 95.7678836741087 10.354400266728135 96.21119895774922 3.375 97 C0.25074645003076057 97.3406980205811 -2.8742533021482757 97.67330361553132 -6 98 C-7.187226562500001 98.12503906249998 -8.374453125000002 98.25007812500002 -9.59765625 98.37890625 C-10.617304687499995 98.43949218749998 -11.636953124999991 98.50007812500002 -12.6875 98.5625 C-13.536992187500005 98.6256640625 -14.386484375000009 98.68882812499999 -15.26171875 98.75390625 C-19.807329352437705 97.50240432950002 -22.667938281136372 94.22389533176573 -26 91 C-26.695368652343745 90.33637451171876 -27.39073730468749 89.67274902343752 -28.107177734375 88.989013671875 C-30.21764851709247 86.95054920343382 -32.299266977269156 84.88628580601159 -34.375 82.8125 C-35.08527343750001 82.11447265625 -35.795546875000014 81.4164453125 -36.52734375 80.697265625 C-36.86701171875001 80.358564453125 -36.86701171875001 80.358564453125 -38.5859375 78.64453125 C-39.1948583984375 78.03971923828125 -39.80377929687501 77.4349072265625 -40.43115234375 76.811767578125 C-47.62742410218539 68.5012271611706 -43.672979255384575 53.25091615791146 -43 43 C-38.6260997605379 46.53044840265123 -34.76461692834994 50.25583044007115 -30.9609375 54.3984375 C-29.57156661856797 55.88492728516469 -28.179404353445193 57.36875827412213 -26.78662109375 58.85205078125 C-25.845092306394747 59.867833654913426 -24.914654159346668 60.89400938140916 -23.99560546875 61.93017578125 C-16.35670624563457 70.50256748491665 -16.35670624563457 70.50256748491665 -10.815673828125 71.672119140625 C-7.482587809547454 71.68380545490125 -4.307624789162475 71.39818599233088 -1 71 C1.0529362401869946 70.94281335668963 3.1065009109009907 70.90453073013353 5.16015625 70.88671875 C7.127698406885372 70.82316597103666 9.095151252945897 70.75678204889958 11.0625 70.6875 C12.067324218750002 70.66494140625 13.072148437500005 70.6423828125 14.107421875 70.619140625 C15.073574218749997 70.58369140625 16.039726562499993 70.5482421875 17.03515625 70.51171875 C17.465098876953107 70.49862670898438 17.465098876953107 70.49862670898438 19.640869140625 70.432373046875 C22.5537579440836 69.89850922912429 23.928391229133382 69.1138865008843 26 67 C26.591796875 64.781982421875 26.591796875 64.781982421875 26.71875 62.16796875 C26.7458203125 61.67836669921874 26.7458203125 61.67836669921874 26.8828125 59.20068359375 C26.921484375000006 58.1444580078125 26.96015625000001 57.088232421875006 27 56 C27.029648437499986 55.455773925781244 27.029648437499986 55.455773925781244 27.1796875 52.70166015625 C27.34678381578749 49.23789277690511 27.430621410247852 45.77950230455792 27.5 42.3125 C27.5270703125 41.726943359375 27.5270703125 41.726943359375 27.6640625 38.763671875 C27.75193819179094 33.19925753409544 27.777528903326015 29.103071587448284 24.05078125 24.7578125 C22.723178131560672 23.481219240156555 21.371063164532984 22.229799247856448 20 21 C18.477446087443838 19.44428913531003 16.96075525992046 17.882823847683312 15.44921875 16.31640625 C13.864589784591402 14.729160226019289 12.277320362282012 13.144546179581369 10.6875 11.5625 C9.877324218750005 10.748457031249998 9.067148437500009 9.934414062499997 8.232421875 9.095703125 C7.458339843749997 8.322910156250003 6.684257812499993 7.5501171875 5.88671875 6.75390625 C5.187644042968742 6.055959472656248 4.488569335937484 5.358012695312496 3.768310546875 4.638916015625 C2 3 2 3 0 2 C0 1.3400000000000034 0 0.6799999999999997 0 0 Z " fill="#C9CACA" transform="translate(187,39)"/>
<path d="M0 0 C6.735853878329976 3.770789013227784 12.49450098154665 9.593392051650255 14.8125 17.0625 C15.891605098042191 25.729417787433704 14.974743517567106 32.90280547312295 9.8125 40.0625 C5.295732169905762 45.020440501870894 0.01519313488483931 48.63970222641785 -6.73828125 49.53125 C-16.01453217241368 49.608311274537186 -22.030260199739587 48.752969752113245 -28.95703125 42.453125 C-34.34201859330807 36.74058368203811 -36.312635605194316 30.898503765970815 -36.6875 23.125 C-36.4709056778201 15.959337841214506 -34.16639840128579 11.259518577112146 -29.3203125 6.05859375 C-20.855468809342028 -1.8298500784536031 -10.911851966704887 -4.851577259042642 0 0 Z M-19.1875 16.0625 C-21.886059788259104 20.110339682388656 -21.95666112186933 23.309893910133667 -21.1875 28.0625 C-19.879315698357175 31.00135124508597 -18.79050512625389 31.893329061455063 -16.1875 34.0625 C-12.213444372661286 35.480660979917275 -9.262838617682519 35.51653186079926 -5.375 33.875 C-2.13779271748939 31.19274253734835 -0.5466900809125264 29.242695980141093 0.6875 25.1875 C0.8458131344839899 21.22967163790065 0.00006543336712638848 19.34384815005069 -2.1875 16.0625 C-5.119582289173877 13.619098092355102 -6.875723214080153 13.095904655634286 -10.6875 12.6875 C-14.41695664815336 13.08708464087357 -16.24192338158764 13.79019803722474 -19.1875 16.0625 Z " fill="#203040" transform="translate(430.1875,290.9375)"/>
<path d="M0 0 C2.8199271690346563 1.8212029633348834 4.50345477851306 3.0069095570261766 6 6 C6.34375 8.1015625 6.34375 8.1015625 6.5 10.625 C6.5360937500000205 11.033632812500002 6.5360937500000205 11.033632812500002 6.71875 13.1015625 C4.891591428813513 20.46977804250207 -3.5441900302370755 26.70351563628202 -8.796875 31.96484375 C-9.512324829101544 32.68362197875976 -10.227774658203145 33.40240020751952 -10.96490478515625 34.14295959472656 C-12.462765708584982 35.64584312116432 -13.961947088606564 37.14741168438988 -15.46240234375 38.647705078125 C-17.762978683995982 40.95049115018125 -20.055410301743677 43.261190688263184 -22.34765625 45.572265625 C-23.809406877330503 47.03694647409381 -25.271629542610526 48.50115641552935 -26.734375 49.96484375 C-27.076570739746103 50.31063224792479 -27.076570739746103 50.31063224792479 -28.80828857421875 52.06053161621094 C-29.446152954101535 52.69531936645507 -30.084017333984377 53.330107116699224 -30.7412109375 53.984130859375 C-31.299677124023447 54.544022064208974 -31.858143310546893 55.10391326904298 -32.43353271484375 55.68077087402344 C-35.505003718023374 58.26746645674214 -39.030160402291074 58.388153797769064 -42.9296875 58.359375 C-46.62335710147062 57.718209710688114 -48.42218954518711 55.64068388054005 -51 53 C-52.17006855773428 50.65986288453141 -52.33836405724048 48.985420475566 -52.5 46.375 C-52.572187499999984 45.557734374999995 -52.644375000000025 44.74046874999999 -52.71875 43.8984375 C-50.91419880443385 36.621388657010414 -42.65013741045061 30.491041921531462 -37.45703125 25.2890625 C-36.76614913940432 24.594851989746104 -36.07526702880858 23.90064147949218 -35.36344909667969 23.185394287109375 C-33.91686221742526 21.733786063660034 -32.46895606544916 20.283491429535218 -31.019775390625 18.83447265625 C-28.802610560587482 16.615100715995652 -26.59359390351534 14.387821584384852 -24.384765625 12.16015625 C-22.971843432926903 10.744303244405955 -21.558448689449676 9.328921619743824 -20.14453125 7.9140625 C-19.48717483520511 7.249520568847657 -18.829818420410163 6.584978637695315 -18.152542114257813 5.900299072265625 C-17.534774017333973 5.28560760498047 -16.917005920410134 4.670916137695315 -16.280517578125 4.03759765625 C-16.011277236938497 3.7676448059081906 -16.011277236938497 3.7676448059081906 -14.648757934570313 2.401519775390625 C-9.95366034880152 -1.5895282589338535 -5.774890504484631 -1.4514430679720647 0 0 Z " fill="#EDC69E" transform="translate(375,173)"/>
<path d="M0 0 C5.578947368421041 3.1578947368421098 5.578947368421041 3.1578947368421098 7 6 C7.917094422878222 12.648934565867023 7.917094422878222 12.648934565867023 5.747314453125 15.845458984375 C5.187458496093768 16.452043457031266 4.6276025390624795 17.058627929687503 4.05078125 17.68359375 C3.7331079101562636 18.029384765624997 3.7331079101562636 18.029384765624997 2.12548828125 19.779296875 C-1.6403268166683347 23.713808031749977 -5.451985590695301 27.59586341176771 -9.3125 31.4375 C-10.122675781249995 32.251542968750016 -10.932851562499991 33.0655859375 -11.767578125 33.904296875 C-12.541660156249975 34.67708984375 -13.315742187500007 35.44988281249999 -14.11328125 36.24609375 C-14.81235595703123 36.94404052734376 -15.511430664062516 37.64198730468749 -16.231689453125 38.361083984375 C-18.70902911007795 40.65714654369094 -19.823807570920053 40.97967010433692 -23.25 41.375 C-28.192729581056483 40.880727041894346 -29.538283006023732 39.46171699397624 -33 36 C-34.41451214678068 33.17097570643864 -34.280072646126655 31.135257677473675 -34 28 C-32.59375 25.7890625 -32.59375 25.7890625 -30.5 23.625 C-29.693046874999993 22.781953125 -28.886093749999986 21.938906250000002 -28.0546875 21.0703125 C-27.03733846971096 20.046000095102528 -26.01900117246953 19.022668843156282 -25 18 C-23.64828870907678 16.622541827344918 -22.29673739904183 15.244926652987004 -20.9453125 13.8671875 C-18.13143717785914 11.016958847541332 -15.31381466674884 8.17072226759393 -12.4765625 5.34375 C-11.879243164062473 4.74755859375 -11.281923828125002 4.1513671875 -10.66650390625 3.537109375 C-7.053548067586405 0.20467896770057337 -4.8404631397769435 -0.5694662517384472 0 0 Z " fill="#EBC59D" transform="translate(394,203)"/>
<path d="M0 0 C4.228644211798041 1.6264016199223192 6.607771090728079 3.1724337451649376 9 7 C9.958142311043957 11.08251941227411 10.00703414727036 15.16319988868662 7.95703125 18.90234375 C6.094600030358151 21.090341352509853 4.085244686883186 23.01997408172099 2 25 C0.7284107615140556 26.273998855342825 -0.5394794387353841 27.551695029876896 -1.8046875 28.83203125 C-5.513176791091553 32.578456794099 -9.249077879950505 36.29610004731853 -13 40 C-17.328838340783477 36.37068426957816 -21.46656421625522 32.650332164344036 -25.4375 28.625 C-26.302460937499973 27.751015625000008 -27.167421875000002 26.877031250000016 -28.05859375 25.9765625 C-28.69925781249998 25.324296875000016 -29.339921875000016 24.672031250000003 -30 24 C-28.524720510047587 20.581587296038435 -26.603797403907492 18.358407248497826 -23.97265625 15.7421875 C-23.576591796874993 15.347089843750013 -23.576591796874993 15.347089843750013 -21.572265625 13.34765625 C-20.744042968750023 12.531679687500002 -19.91582031249999 11.715703125000005 -19.0625 10.875 C-18.238144531249986 10.05128906249999 -17.413789062499973 9.227578125000008 -16.564453125 8.37890625 C-7.484855013545825 -0.6343097469106738 -7.484855013545825 -0.6343097469106738 0 0 Z " fill="#EDC69E" transform="translate(345,145)"/>
<path d="M0 0 C4.228644211798041 1.6264016199223192 6.607771090728079 3.172433745164952 9 7 C9.958142311043957 11.08251941227411 10.00703414727036 15.16319988868662 7.95703125 18.90234375 C6.094600030358151 21.090341352509853 4.085244686883186 23.01997408172099 2 25 C0.7284107615140556 26.273998855342825 -0.5394794387353841 27.551695029876896 -1.8046875 28.83203125 C-5.513176791091553 32.578456794099 -9.249077879950505 36.29610004731853 -13 40 C-17.328838340783477 36.37068426957816 -21.46656421625522 32.650332164344036 -25.4375 28.625 C-26.302460937499973 27.751015625000008 -27.167421875000002 26.877031250000016 -28.05859375 25.9765625 C-28.69925781249998 25.324296875000016 -29.339921875000016 24.672031250000003 -30 24 C-28.524720510047587 20.581587296038435 -26.603797403907492 18.358407248497826 -23.97265625 15.7421875 C-23.576591796874993 15.347089843750013 -23.576591796874993 15.347089843750013 -21.572265625 13.34765625 C-20.744042968750023 12.531679687500002 -19.91582031249999 11.715703125000005 -19.0625 10.875 C-18.238144531249986 10.05128906249999 -17.413789062499973 9.227578125000008 -16.564453125 8.37890625 C-7.484855013545825 -0.6343097469106596 -7.484855013545825 -0.6343097469106596 0 0 Z " fill="#EDC69E" transform="translate(318,118)"/>
</svg>
